<svg xmlns="http://www.w3.org/2000/svg" version="1.0" width="192.000000pt" height="192.000000pt" viewBox="0 0 192.000000 192.000000" preserveAspectRatio="xMidYMid meet">

<g transform="translate(0.000000,192.000000) scale(0.100000,-0.100000)" fill="#fd4615" stroke="none">
<path d="M867 1682 c-10 -10 -17 -32 -17 -48 0 -52 -21 -107 -54 -140 -60 -60 -147 -55 -226 11 -23 19 -50 35 -60 35 -10 0 -43 -25 -74 -56 -62 -63 -72 -97 -35 -130 30 -26 49 -76 49 -126 0 -81 -70 -148 -155 -148 -68 0 -75 -10 -75 -110 0 -104 10 -120 73 -120 51 0 100 -28 128 -72 31 -51 23 -135 -19 -187 -43 -53 -41 -77 13 -135 l44 -49 391 384 c215 211 400 385 411 387 19 3 19 -4 17 -255 -3 -229 -5 -258 -19 -261 -12 -2 -29 20 -58 72 -22 41 -46 78 -52 82 -7 4 -88 -71 -200 -182 -188 -188 -188 -188 -169 -209 26 -28 50 -88 50 -127 0 -19 7 -44 16 -56 14 -20 23 -22 114 -22 91 0 100 2 114 22 9 12 16 38 16 58 0 49 38 120 79 147 61 41 153 26 208 -33 34 -36 63 -30 115 23 40 42 68 81 68 96 0 3 -16 24 -35 47 -96 115 -23 270 127 270 14 0 30 6 35 13 28 34 25 174 -4 203 -8 8 -33 14 -55 14 -83 0 -158 74 -158 154 0 37 30 109 51 121 37 23 25 77 -29 129 l-30 28 -391 -387 c-331 -328 -393 -386 -406 -375 -12 10 -15 47 -14 219 1 233 7 296 29 296 8 0 34 -35 58 -77 24 -43 49 -78 56 -78 6 0 90 79 186 175 l174 174 -26 28 c-35 37 -58 93 -58 142 0 60 -18 71 -109 71 -63 0 -81 -4 -94 -18z"/>
</g>
</svg>