<?xml version="1.0" encoding="UTF-8"?> <svg xmlns="http://www.w3.org/2000/svg" xml:space="preserve" style="fill-rule:evenodd;clip-rule:evenodd" viewBox="0 0 203 52"><path d="M856.037 50c0-14.328-11.632-25.96-25.96-25.96H679.423c-14.328 0-25.96 11.632-25.96 25.96 0 14.328 11.632 25.96 25.96 25.96h150.654c14.328 0 25.96-11.632 25.96-25.96Z" style="fill:#fff" transform="translate(-653.463 -24.04)"></path><path d="M856.037 50c0-14.328-11.632-25.96-25.96-25.96H679.423c-14.328 0-25.96 11.632-25.96 25.96 0 14.328 11.632 25.96 25.96 25.96h150.654c14.328 0 25.96-11.632 25.96-25.96Z" style="fill:none;stroke:#d3d7de;stroke-width:.43px" transform="translate(-653.463 -24.04)"></path><path d="M696.268 54.115c5.061-8.526-1.986-18.797-13.196-18.797-11.274 0-18.32 10.271-13.26 18.797-3.651 4.199-.256 10.142 5.894 10.142 2.498 0 4.996-1.098 6.405-3.23.449.065 1.41.065 1.858 0 1.409 2.132 3.908 3.23 6.406 3.23 6.149 0 9.544-6.007 5.893-10.142Zm-21.715-5.361v-3.747h2.626v3.747h-2.626Zm13.9 5.555c-3.587 1.615-8.712.84-12.043-2.131v-1.615c3.524 2.777 8.136 3.552 12.043 2.196v1.55Zm-9.673-5.555v-3.747h10.634v3.747H678.78Z" style="fill:#ff6200;fill-rule:nonzero" transform="translate(-653.463 -24.04)"></path><path d="m708.347 38.923.749 7.96h2.218l1.34-2.887c.319-.734.526-1.324.941-2.441h.032c0 .957.016 1.723.064 2.553l.239 2.775h2.201l3.861-7.96h-2.361l-1.356 3.318c-.335.925-.622 1.707-.877 2.584h-.032c.048-.845.016-1.627-.016-2.552l-.192-3.35h-1.914l-1.563 3.462c-.335.797-.702 1.595-.973 2.44h-.032c.048-.877.079-1.627.079-2.536l-.015-3.366h-2.393ZM721.348 50.106l.654-3.366h.032c.271.159.829.319 1.483.319 2.76 0 4.61-2.537 4.61-5.312 0-1.627-.829-3.015-2.552-3.015-.957 0-1.898.478-2.552 1.34h-.032l.143-1.149h-2.121a42.927 42.927 0 0 1-.479 3.079l-1.531 8.104h2.345Zm1.292-6.924c.287-1.563 1.101-2.552 1.978-2.552.766 0 1.021.67 1.021 1.308 0 1.563-.973 3.35-2.233 3.35-.463 0-.814-.143-1.069-.399l.303-1.707ZM730.967 35.318l-1.611 8.056c-.096.478-.176.957-.176 1.451 0 1.42.941 2.234 2.824 2.234 3.573 0 5.264-2.967 5.264-5.552 0-1.419-.75-2.775-2.409-2.775-.973 0-1.866.43-2.456 1.116h-.032l.957-4.53h-2.361Zm.861 7.561c.272-1.388 1.101-2.249 1.947-2.249.717 0 1.036.606 1.036 1.372 0 1.404-.973 3.286-2.329 3.286-.542 0-.877-.303-.893-.877-.016-.335.048-.622.08-.878l.159-.654ZM744.479 44.73a5.126 5.126 0 0 1-2.234.51c-.686 0-1.212-.207-1.531-.622-.16-.223-.24-.59-.24-.813 3.191.079 5.153-.655 5.153-2.68 0-1.484-1.148-2.377-2.76-2.377-2.887 0-4.642 2.52-4.642 4.945 0 2.074 1.165 3.35 3.446 3.35.877 0 2.026-.144 2.967-.622l-.159-1.691Zm-1.037-3.605c0 .717-.91.973-2.728.957.159-.75.781-1.643 1.866-1.643.543.016.862.287.862.686ZM746.122 49.787c.542.303 1.531.51 2.584.51 1.053 0 2.217-.207 3.079-.893.957-.766 1.403-2.074 1.675-3.542l1.196-6.556c-.829-.351-1.819-.558-2.951-.558-3.462 0-5.344 2.6-5.344 5.248.016 1.547.973 2.839 2.552 2.839.941 0 1.659-.366 2.281-1.18h.032l-.127.67c-.319 1.595-1.197 2.122-2.377 2.122-.67 0-1.643-.176-2.09-.447l-.51 1.787Zm5.599-6.972c-.239 1.356-1.021 2.202-1.787 2.202-.718 0-1.069-.59-1.069-1.388 0-1.515 1.005-3.095 2.425-3.095.319 0 .67.064.846.144l-.415 2.137ZM757.559 46.883l1.516-7.96h-2.345l-1.516 7.96h2.345Zm.638-8.965c.75 0 1.388-.494 1.388-1.324 0-.702-.494-1.148-1.164-1.148a1.34 1.34 0 0 0-1.356 1.34c0 .701.478 1.132 1.132 1.132ZM761.866 46.883l.67-3.541c.32-1.755 1.213-2.712 1.979-2.712.59 0 .781.399.781.941 0 .287-.032.622-.08.894l-.829 4.418h2.345l.877-4.626c.064-.399.128-.989.128-1.356 0-1.372-.734-2.169-2.026-2.169-1.053 0-2.058.462-2.792 1.499h-.032l.16-1.324h-2.09a37.435 37.435 0 0 1-.431 2.584l-1.005 5.376h2.345v.016ZM771.039 46.883l.67-3.541c.319-1.755 1.212-2.712 1.978-2.712.59 0 .782.399.782.941 0 .287-.032.622-.08.894l-.83 4.418h2.345l.878-4.626c.064-.399.127-.989.127-1.356 0-1.372-.733-2.169-2.026-2.169-1.052 0-2.057.462-2.791 1.499h-.032l.159-1.324h-2.089a38.054 38.054 0 0 1-.431 2.584l-1.005 5.376h2.345v.016ZM784.343 44.73a5.121 5.121 0 0 1-2.233.51c-.686 0-1.213-.207-1.532-.622-.159-.223-.239-.59-.239-.813 3.191.079 5.153-.655 5.153-2.68 0-1.484-1.149-2.377-2.76-2.377-2.887 0-4.642 2.52-4.642 4.945 0 2.074 1.164 3.35 3.446 3.35.877 0 2.026-.144 2.967-.622l-.16-1.691Zm-1.037-3.605c0 .717-.909.973-2.728.957.16-.75.782-1.643 1.867-1.643.526.016.861.287.861.686ZM788.347 46.883l.559-2.967c.287-1.563.989-2.903 2.488-2.903.128 0 .255 0 .367.016l.463-2.281c-.144-.016-.288-.016-.447-.016-1.085 0-1.978.749-2.536 1.802h-.048c.048-.558.095-1.084.143-1.627h-2.026c-.079.686-.175 2.026-.399 3.223l-.893 4.737h2.329v.016Z" style="fill:#11151c;fill-rule:nonzero" transform="translate(-653.463 -24.04)"></path><path d="M826.727 35.872a.852.852 0 0 0-1.226 0l-2.071 2.15c-.219.227-.546.315-.849.227l-2.868-.826a.852.852 0 0 0-1.062.613l-.718 2.897a.851.851 0 0 1-.621.621l-2.897.719a.85.85 0 0 0-.613 1.062l.826 2.868a.851.851 0 0 1-.228.848l-2.149 2.071a.85.85 0 0 0 0 1.226l2.149 2.071a.853.853 0 0 1 .228.849l-.826 2.868a.85.85 0 0 0 .613 1.061l2.897.719a.851.851 0 0 1 .621.621l.718 2.897a.85.85 0 0 0 1.062.613l2.868-.826c.303-.087.63 0 .849.228l2.071 2.149a.852.852 0 0 0 1.226 0l2.07-2.149a.851.851 0 0 1 .849-.228l2.868.826a.85.85 0 0 0 1.062-.613l.719-2.897a.85.85 0 0 1 .621-.621l2.897-.719a.851.851 0 0 0 .613-1.061l-.826-2.868a.85.85 0 0 1 .227-.849l2.149-2.071a.85.85 0 0 0 0-1.226l-2.149-2.071a.849.849 0 0 1-.227-.848l.826-2.868a.852.852 0 0 0-.613-1.062l-2.897-.719a.85.85 0 0 1-.621-.621l-.719-2.897a.852.852 0 0 0-1.062-.613l-2.868.826a.85.85 0 0 1-.849-.227l-2.07-2.15Zm-2.868 15.635 6.511-6.512c.181-.181.471-.181.616 0l1.05 1.014c.145.181.145.471 0 .616l-7.852 7.851a.416.416 0 0 1-.615 0l-3.377-3.341c-.145-.181-.145-.47 0-.615l1.05-1.05c.144-.145.434-.145.615 0l2.002 2.037Z" style="fill:#358eea" transform="translate(-653.463 -24.04)"></path><path d="M802.202 35.72h.426v27.882h-.426z" style="fill:#cfcfcf" transform="translate(-653.463 -24.04)"></path><path d="m712.933 62.98 3.282-9.179h-1.266l-1.553 4.535c-.408 1.199-.79 2.356-1.048 3.419h-.028c-.245-1.076-.585-2.193-.98-3.432l-1.43-4.522h-1.28l2.996 9.179h1.307ZM722.638 57.696h-3.568v-2.9h3.772v-.995h-4.957v9.179h5.162v-.994h-3.977v-3.309h3.568v-.981ZM725.269 62.98h1.185v-3.976h1.116c1.076.041 1.567.517 1.839 1.784.259 1.144.463 1.934.613 2.192h1.225c-.19-.354-.408-1.239-.708-2.519-.218-.953-.64-1.607-1.348-1.852v-.041c.967-.327 1.73-1.13 1.73-2.342 0-.709-.259-1.335-.722-1.744-.572-.517-1.389-.749-2.656-.749-.817 0-1.675.068-2.274.191v9.056Zm1.185-8.225c.19-.055.599-.109 1.171-.109 1.253.014 2.111.531 2.111 1.716 0 1.048-.804 1.743-2.07 1.743h-1.212v-3.35ZM733.278 53.801h1.185v9.179h-1.185zM737.217 62.98h1.185v-4.153h3.473v-.981h-3.473v-3.05h3.759v-.995h-4.944v9.179ZM744.534 53.801h1.185v9.179h-1.185zM753.226 57.696h-3.568v-2.9h3.773v-.995h-4.957v9.179h5.161v-.994h-3.977v-3.309h3.568v-.981ZM755.857 62.953c.599.068 1.308.109 2.152.109 1.784 0 3.2-.463 4.058-1.321.858-.844 1.321-2.07 1.321-3.568 0-1.484-.476-2.547-1.293-3.296-.804-.749-2.016-1.144-3.718-1.144-.94 0-1.798.082-2.52.191v9.029Zm1.185-8.157a6.729 6.729 0 0 1 1.389-.123c2.506 0 3.732 1.375 3.718 3.541 0 2.478-1.375 3.895-3.909 3.895-.463 0-.898-.014-1.198-.068v-7.245Z" style="fill:#11151c;fill-rule:nonzero" transform="translate(-653.463 -24.04)"></path></svg> 